#!OML:ASF F:\VICON\USERDATA\INSTALL\rory3\rory3.ASF
:FULLY-SPECIFIED
:DEGREES
55
root 0.6291187589976146 17.481562682550088 28.844676756412266 3.2005920937524257 0.4693876877660672 2.0155131864530387
lfemur 7.93576547532907 -9.293904318450032 -30.513806120032235
ltibia 15.24245977244761
lfoot -35.061730996591606 10.531190044892302
ltoes 7.545028832768505
rfemur -40.902640159532694 -9.22388533300513 16.16156776074793
rtibia 157.56808079624045
rfoot 18.326230347949185 -6.4193713843077855
rtoes 17.66140254330051
lowerback nan 1.5153003764228752 -1.7477915427313206
upperback 0.37291517637478877 1.3425236772120202 -1.0148062418872503
thorax -9.228668947086721 0.5865889185402149 1.0184356767905207
lowerneck -21.299761607616272 -4.235332484471626 -2.139329151335228
upperneck 4.9763913758000164 -6.8854418334587955 7.047218914889849
head 5.645755330971219 -1.996492867203687 1.6789115460982103
lclavicle 1.4565491012476702e-14 -1.952106332167305e-14
lhumerus -41.430537663673064 0.5432049944738573 82.71382304609415
lradius 116.461463880635
lwrist 33.77079824139929
lhand -34.33105842295498 7.57628876464944
lfingers nan
lthumb -7.1070921445633335 37.41491382049274
rclavicle 1.6999390546639024e-14 -1.6290300584889024e-14
rhumerus -60.54263203825482 -1.5952516296063415 -92.22064664907833
rradius 87.44494713820009
rwrist -22.221226286738485
rhand -18.947607114513243 nan
rfingers nan
rthumb 7.126873682529018 5.496742870828123
56
root 0.648619644589813 17.51595162889254 29.306580634365158 3.590551467009289 0.973506032606499 1.3050357071201977
lfemur 8.578091519336692 -9.307984231205596 -29.871759619567598
ltibia 15.175490151324205
lfoot -34.583359730546505 10.136931609845004
ltoes 5.802621697114599
rfemur -42.025165886287894 -9.534159180226757 17.53566883351027
rtibia 155.6974595369753
rfoot 19.56683009555498 -5.219426149985916
rtoes 22.233400150428256
lowerback nan 1.2376433275815504 -1.3333928717141794
upperback 0.29134361892333416 1.1343063966740998 -0.8764861309263239
thorax -9.059520148109906 0.4466369639394414 1.024099000270066
lowerneck -21.16039786620407 -4.134526100723497 -2.1288952643586807
upperneck 4.713444859901033 -6.712936587426447 6.94020876266932
head 5.519574443965546 -1.9377393969105667 1.6549975027353419
lclavicle 1.0289777878299282e-14 5.6792920912910494e-15
lhumerus -41.15033793539553 0.6305811565166097 82.73596083711267
lradius 117.61909124470607
lwrist 34.576027989226226
lhand -32.7376922513351 7.6975084924363815
lfingers nan
lthumb -5.5690864749802556 37.59320059816838
rclavicle 1.2862194647696866e-14 9.06305994609567e-15
rhumerus -61.470587061330164 -1.358871094181568 -91.91356859625924
rradius 87.72051486501388
rwrist -22.839134110960444
rhand -18.622753297252416 nan
rfingers nan
rthumb 7.45268141977134 5.514989969577887
57
root 0.6821115235908465 17.55819646055345 29.371711447880767 4.044072683172034 1.7962229403681833 0.815533959599795
lfemur 9.31626749639587 -9.606637592354286 -29.405657061011155
ltibia 14.787657342946254
lfoot -33.152457639078946 10.225065157791313
ltoes 3.826787234388828
rfemur -43.15176045986468 -10.005823300826533 18.626131261639472
rtibia 153.39033688438815
rfoot 19.10784986265923 -4.2285047734777725
rtoes 23.215041311951197
lowerback nan 0.8829016366221598 -1.0333554271748913
upperback 0.21209930480591044 0.8265761931169978 -0.747208344619883
thorax -8.790810908930924 0.23808959733871704 1.0823027143079191
lowerneck -21.288012293151553 -3.987634043868646 -2.11740587465393
upperneck 4.680004911526899 -6.488147952870973 6.830962210808049
head 5.490759824368038 -1.847069762578267 1.6385667043203733
lclavicle -1.2647574967537678e-14 3.006648987414851e-14
lhumerus -41.05937874199124 0.6190505500875787 82.68014316561514
lradius 118.94142582133468
lwrist 35.17308697032641
lhand -29.011089762729384 8.063983482139136
lfingers nan
lthumb -2.0099069481277203 37.96373805679901
rclavicle -9.848876006681097e-15 3.336697420452393e-14
rhumerus -62.30365746561767 -1.0759349057051484 -91.64993141459779
rradius 88.32962054451667
rwrist -23.24710960486777
rhand -19.051659832673664 nan
rfingers nan
rthumb 7.039213903234752 6.166287202096371
58
root 0.7068152769328953 17.6092860899986 29.52674708338868 4.135414852012211 2.2166996693577934 0.5321658626188808
lfemur 10.37216914503114 -9.777396563223697 -29.159310826163424
ltibia 14.12576186221549
lfoot -31.508349844237923 10.09330423949605
ltoes 2.3537516875366045
rfemur -43.968146078775625 -10.068037011693944 19.45956684378246
rtibia 150.66454768137442
rfoot 17.27200784442841 -3.4386472012784575
rtoes 21.427885783322907
lowerback nan 0.5743448592010593 -0.9736679544590672
upperback 0.15369018054851624 0.5356609568192109 -0.6040811611868984
thorax -8.871909037491243 0.03873027272861895 1.2303028043135489
lowerneck -21.417541217367962 -3.8436575076780457 -2.2100291280400315
upperneck 4.74031707382691 -6.278130715385485 6.855675798434688
head 5.5244047900022455 -1.745341245278152 1.6704168564084614
lclavicle 1.6726977730987087e-14 5.5463599795714754e-15
lhumerus -41.14120640416063 0.5660065676840293 82.73005815628078
lradius 120.32616127026012
lwrist 35.985959662977045
lhand -28.12861195375349 8.544781961571715
lfingers nan
lthumb -1.1871266123499338 38.359528471953894
rclavicle 1.937806328128589e-14 8.827180971458667e-15
rhumerus -63.107386193990884 -0.7201825722557622 -91.3444247465928
rradius 89.27396414511186
rwrist -23.502217198002107
rhand -19.510060813515572 nan
rfingers nan
rthumb 6.582286192815207 7.384613923494092
